<svg width="24" height="24" viewBox="0 0 24 24" fill="none" xmlns="http://www.w3.org/2000/svg">
<g id="notification">
<path id="Icon" fill-rule="evenodd" clip-rule="evenodd" d="M12 2C8.13 2 5 5.58 5 10V12.29L3 18H8C8 20.2091 9.79086 22 12 22C14.2091 22 16 20.2091 16 18H21L19 12.29V10.29C19 6.5 16.79 3.03 13.55 2.29C13.047 2.13079 12.5265 2.0334 12 2ZM14 18C14 19.1046 13.1046 20 12 20C10.8954 20 10 19.1046 10 18H14ZM6.89 13L5.82 16H18.18L17.11 12.95L17 12.63V10.24C17 7.31 15.31 4.68 13.07 4.13C12.72 4.04308 12.3606 3.99942 12 4C9.24 4 7 6.69 7 10V12.63L6.89 13Z" fill="#000028"/>
</g>
</svg>
