<?xml version="1.0" encoding="utf-8"?>
<!-- Generator: Adobe Illustrator 28.1.0, SVG Export Plug-In . SVG Version: 6.00 Build 0)  -->
<svg version="1.1" id="Ebene_1" xmlns="http://www.w3.org/2000/svg" xmlns:xlink="http://www.w3.org/1999/xlink" x="0px" y="0px"
	 viewBox="0 0 24 24" style="enable-background:new 0 0 24 24;" xml:space="preserve">
<style type="text/css">
	.st0{display:none;fill:#0F1023;}
	.st1{fill-rule:evenodd;clip-rule:evenodd;fill:#0F1023;}
</style>
<path class="st0" d="M18.2,14.25c0.62-0.84,1.06-1.65,1.33-2.2c-0.85-1.72-3.39-6-7.81-6c-0.54,0-1.05,0.07-1.54,0.18L8.6,4.64
	c0.94-0.36,1.97-0.59,3.12-0.59c7,0,10,8,10,8s-0.67,1.76-2.09,3.63L18.2,14.25z M5.17,6.91L3.02,4.76l1.41-1.41l6.02,6.02
	c0.39-0.19,0.82-0.3,1.28-0.3c1.65,0,3,1.35,3,3c0,0.46-0.11,0.89-0.3,1.28l6,6l-1.41,1.41l-2.29-2.29
	c-1.36,0.93-3.02,1.58-5.01,1.58c-7,0-10-8-10-8S2.81,9.2,5.17,6.91z M11.72,18.05c1.36,0,2.54-0.42,3.55-1.04l-2.26-2.26
	c-0.39,0.19-0.83,0.3-1.29,0.3c-1.65,0-3-1.35-3-3c0-0.46,0.12-0.9,0.3-1.29L6.58,8.33c-1.35,1.3-2.24,2.84-2.67,3.73
	C4.76,13.77,7.31,18.05,11.72,18.05z"/>
<g id="show">
	<g id="Icon">
		<path class="st1" d="M11.72,8.55c-1.93,0-3.5,1.57-3.5,3.5s1.57,3.5,3.5,3.5s3.5-1.57,3.5-3.5S13.66,8.55,11.72,8.55z
			 M11.72,10.55c0.83,0,1.5,0.67,1.5,1.5s-0.67,1.5-1.5,1.5s-1.5-0.67-1.5-1.5S10.9,10.55,11.72,10.55z"/>
		<path class="st1" d="M11.72,4.05c-7,0-10,8-10,8s3,8,10,8s10-8,10-8S18.72,4.05,11.72,4.05z M11.72,6.05c4.42,0,7,4.28,7.81,6
			c-0.81,1.72-3.39,6-7.81,6s-7-4.28-7.81-6C4.72,10.33,7.3,6.05,11.72,6.05z"/>
	</g>
</g>
</svg>
