<?xml version="1.0" encoding="utf-8"?>
<!-- Generator: Adobe Illustrator 26.0.2, SVG Export Plug-In . SVG Version: 6.00 Build 0)  -->
<svg version="1.1" baseProfile="tiny" xmlns="http://www.w3.org/2000/svg" xmlns:xlink="http://www.w3.org/1999/xlink" x="0px"
	 y="0px" viewBox="0 0 24 24" overflow="visible" xml:space="preserve">
<g id="Bounding_box">
	<rect fill="none" width="24" height="24"/>
</g>
<g id="Icon">
	<path d="M18.5,15c-1.0166,0-1.92407,0.44043-2.56348,1.13257l-6.9939-3.06366C8.97327,12.88269,9,12.69489,9,12.5
		c0-0.36414-0.07135-0.70831-0.1745-1.03845l7.12476-3.57745C16.58899,8.56702,17.49115,9,18.5,9C20.43298,9,22,7.43298,22,5.5
		S20.43298,2,18.5,2S15,3.56702,15,5.5c0,0.20343,0.02655,0.40002,0.05988,0.59393L7.69324,9.79279C7.09155,9.30463,6.33514,9,5.5,9
		C3.56702,9,2,10.56702,2,12.5S3.56702,16,5.5,16c1.0166,0,1.92407-0.44043,2.56348-1.13257l6.9939,3.06366
		C15.02673,18.11731,15,18.30511,15,18.5c0,1.93298,1.56702,3.5,3.5,3.5s3.5-1.56702,3.5-3.5S20.43298,15,18.5,15z M18.5,4
		C19.32709,4,20,4.67291,20,5.5S19.32709,7,18.5,7S17,6.32709,17,5.5S17.67291,4,18.5,4z M5.5,14C4.67291,14,4,13.32709,4,12.5
		S4.67291,11,5.5,11S7,11.67291,7,12.5S6.32709,14,5.5,14z M18.5,20c-0.82709,0-1.5-0.67291-1.5-1.5s0.67291-1.5,1.5-1.5
		s1.5,0.67291,1.5,1.5S19.32709,20,18.5,20z"/>
</g>
<g id="Kommentare" display="none">
</g>
</svg>
