<?xml version="1.0" encoding="utf-8"?>
<!-- Generator: Adobe Illustrator 25.3.1, SVG Export Plug-In . SVG Version: 6.00 Build 0)  -->
<svg version="1.2" baseProfile="tiny" xmlns="http://www.w3.org/2000/svg" xmlns:xlink="http://www.w3.org/1999/xlink" x="0px"
	 y="0px" viewBox="0 0 16 16" overflow="visible" xml:space="preserve">
<g id="Ebene_1">
	<g id="Normal">
		<rect y="0.2" display="none" fill="#B21212" width="15.8" height="15.8"/>
		<path fill="#697882" d="M11.4,4.8c-0.4-0.1-0.9-0.2-1.4-0.2c-0.3,0-0.7,0-1,0.1L8.9,4.6C8.5,4,8.3,3.9,8,3.9S7.5,4,7.1,4.6
			L6.8,5.1C6,6.2,5.5,6.6,4.4,6.6c-1.7,0-2.9-1.2-3.6-3.3c-0.2-0.5,0.1-1,0.6-1.2c0.5-0.2,1,0.1,1.2,0.6c0.4,1.5,1,2.1,1.8,2.1
			c0.3,0,0.5-0.1,0.9-0.7l0.3-0.5c0.7-1,1.3-1.5,2.4-1.5c1.2,0,1.7,0.5,2.6,1.8l0.2,0.3C11,4.5,11.2,4.7,11.4,4.8z"/>
		<path fill="#697882" d="M15.3,3.3c-0.4,1.3-1,2.2-1.8,2.8c-0.5-0.5-1.1-0.9-1.8-1.2h0c0.7-0.1,1.3-0.7,1.8-2.2
			c0.2-0.5,0.7-0.7,1.2-0.6C15.2,2.3,15.4,2.8,15.3,3.3z"/>
		<path fill="#FFFFFF" d="M11.7,4.9c-0.1,0-0.2,0-0.3-0.1C11.5,4.8,11.6,4.8,11.7,4.9z"/>
		<path display="none" fill="#FFFFFF" d="M14.8,9.4c0,2.7-2.2,4.8-4.8,4.8c-2.6,0-4.8-2.1-4.8-4.8c0-2.3,1.6-4.2,3.8-4.7l0.1,0.1
			c0.9,1.3,1.4,1.8,2.6,1.8c0.7,0,1.2-0.2,1.8-0.5C14.3,6.9,14.8,8.1,14.8,9.4z"/>
		<path fill="#697882" d="M10,5c2.4,0,4.4,2,4.4,4.4c0,1-0.4,2-1,2.8l1.9,2c0.3,0.3,0.3,0.8,0,1.1c-0.1,0.1-0.3,0.2-0.5,0.2
			c-0.2,0-0.3-0.1-0.5-0.2l-0.1-0.1l-1.9-2c-0.7,0.4-1.4,0.6-2.3,0.6c-2.4,0-4.4-2-4.4-4.4S7.5,5,10,5z M10,6.8
			c-1.4,0-2.6,1.2-2.6,2.6S8.5,12,10,12s2.6-1.2,2.6-2.6S11.4,6.8,10,6.8z"/>
	</g>
	<g id="Active" display="none">
		<path display="inline" fill="#5A7487" d="M15,0H1C0.5,0,0,0.4,0,1v14c0,0.6,0.5,1,1,1h14c0.6,0,1-0.4,1-1V1C16,0.4,15.6,0,15,0z"
			/>
		<path id="Shape_2_" display="inline" fill="#F3F4F6" d="M13.5,2.5c0.2-0.5,0.7-0.7,1.2-0.6c0.5,0.2,0.7,0.7,0.6,1.2
			c-0.7,2.1-1.9,3.3-3.6,3.3c-1.2,0-1.7-0.5-2.6-1.8L8.9,4.4C8.5,3.9,8.3,3.7,8,3.7S7.5,3.8,7.1,4.4L6.8,4.9C6,6,5.5,6.5,4.4,6.5
			c-1.7,0-2.9-1.2-3.6-3.3C0.6,2.6,0.9,2.1,1.4,2s1,0.1,1.2,0.6c0.4,1.4,1,2,1.8,2c0.3,0,0.5-0.1,0.9-0.7l0.3-0.5
			c0.7-1,1.3-1.5,2.4-1.5c1.2,0,1.7,0.5,2.6,1.8L10.8,4c0.4,0.5,0.6,0.7,0.9,0.7C12.4,4.6,13,4,13.5,2.5L13.5,2.5z"/>
		<polygon fill="#F3F4F6" points="8.6,13.9 8.6,8.8 10.3,10 10.8,9.5 8,6.7 5.3,9.4 5.8,10 7.5,8.8 7.6,13.9 		"/>
		<circle display="inline" fill="#5A7487" cx="10" cy="9.1" r="4.6"/>
		<path display="inline" fill="#F3F4F6" d="M10,5c2.4,0,4.4,2,4.4,4.4c0,1-0.4,2-1,2.8l1.9,2c0.3,0.3,0.3,0.8,0,1.1
			c-0.1,0.1-0.3,0.2-0.5,0.2c-0.2,0-0.3-0.1-0.5-0.2l-0.1-0.1l-1.9-2c-0.7,0.4-1.4,0.6-2.3,0.6c-2.4,0-4.4-2-4.4-4.4S7.5,5,10,5z
			 M10,6.8c-1.4,0-2.6,1.2-2.6,2.6S8.5,12,10,12s2.6-1.2,2.6-2.6S11.4,6.8,10,6.8z"/>
	</g>
</g>
<g id="Ebene_2">
</g>
</svg>
