<svg xmlns="http://www.w3.org/2000/svg" width="16" height="16" style=""><rect id="backgroundrect" width="100%" height="100%" x="0" y="0" fill="none" stroke="none" class="" style=""/>
  <defs>
    <filter id="look_16-32er-a">
      <feColorMatrix in="SourceGraphic" values="0 0 0 0 0.411765 0 0 0 0 0.470588 0 0 0 0 0.509804 0 0 0 1.000000 0"/>
    </filter>
  </defs>
  
<g class="currentLayer" style=""><title>Layer 1</title><g fill="none" fill-rule="evenodd" filter="url(#look_16-32er-a)" id="svg_1" class="">
    <path fill="#495862" fill-rule="nonzero" d="M8.042875163704966,3.2147954100064036 C11.331335930802911,3.214001580741189 14.371289784152186,5.0383140488089735 16.021017067582225,8.002573988386228 C14.370039689097268,10.965293524280966 11.330684914423552,12.788565658600765 8.042875163704966,12.788565658600765 C4.755065428942661,12.788565658600765 1.7157106702252274,10.965293524280966 0.06473325982770493,8.002573988386228 C1.7144605193233158,5.0383140488089735 4.754414428519588,3.214001580741189 8.042875163704966,3.2147954100064036 zM8.043067915613364,4.012609648106274 L8.215912764332485,4.0162956254582145 C10.338739315121549,4.106896912787462 12.031946115643592,5.8565393818151605 12.031946115643592,8.001107206997201 C12.032707150599801,9.059459987375988 11.612615296301481,10.074684288906539 10.86424683708432,10.82305266834228 C10.115878377867158,11.571421207340862 9.100654076336607,11.991513061639184 8.042875163704966,11.990751547994458 C5.839772150171988,11.990751547994458 4.053804211766338,10.204783769151646 4.053804211766338,8.001680596055829 C4.053804211766338,5.798577837823393 5.83977191082773,4.012609648106274 8.042875163704966,4.012609648106274 L8.043067915613364,4.012609648106274 C5.192290223307433,4.011921601181269 2.54235721922407,5.518994505621458 0.9909368715904363,8.002328660522682 C2.5433789080544207,10.484450831952866 5.1929114014360644,11.990751547994458 8.042875163704966,11.990751547994458 C10.892838902039433,11.990751547994458 13.542371451268075,10.484450831952866 15.094813431885065,8.002328660522682 C13.543393132120283,5.518994505621458 10.893460080168072,4.011921601181269 8.043067915613364,4.012609648106274 zM8.042875163704966,5.60823850358117 C6.7210131321972035,5.60823850358117 5.649432592541789,6.6798190591928694 5.649432592541789,8.001681074744344 C5.649432592541789,9.323542547782171 6.721013451322879,10.39512364590752 8.04344903145211,10.39512364590752 C8.678217286569897,10.39558039453152 9.287118331318416,10.1436219770324 9.735967238546426,9.694773069804388 C10.18481606599302,9.245924242357797 10.436774483492142,8.637023197609276 10.43631773486814,8.001681074744344 C10.43631773486814,6.6798193783185456 9.36473663674279,5.60823850358117 8.042875163704966,5.60823850358117 z" id="svg_2"/>
  </g></g></svg>