<?xml version="1.0" encoding="UTF-8"?>
<svg id="Ebene_2" data-name="Ebene 2" xmlns="http://www.w3.org/2000/svg" width="16" height="16" viewBox="0 0 16 16">
  <defs>
    <style>
      .cls-1 {
        fill: #f3f4f6;
      }

      .cls-2 {
        fill: #5a7487;
      }
    </style>
  </defs>
  <g id="Zoom">
    <g id="Icon-zoom100Procent-ON-default-16er">
      <rect class="cls-2" x="0" y="0" width="16" height="16" rx="1" ry="1"/>
      <path class="cls-1" d="m9.59,4.9c2.43,0,4.4,1.97,4.4,4.4,0,1.04-.36,2-.97,2.75l1.85,1.96c.29.3.28.79-.02,1.08-.14.14-.33.21-.53.21-.17,0-.33-.05-.46-.15l-.09-.08-1.9-2.01c-.67.41-1.45.64-2.29.64-2.43,0-4.4-1.97-4.4-4.4s1.97-4.4,4.4-4.4Zm0,1.8c-1.44,0-2.6,1.16-2.6,2.6s1.16,2.6,2.6,2.6,2.6-1.16,2.6-2.6-1.16-2.6-2.6-2.6Z"/>
      <g>
        <path class="cls-1" d="m5.15.35c.57,0,.97.25,1.21.75.15.33.23.79.23,1.39,0,.66-.09,1.16-.28,1.49-.24.43-.64.65-1.17.65-.58,0-.99-.25-1.23-.75-.15-.33-.23-.79-.23-1.39,0-.66.09-1.16.28-1.49.24-.43.64-.64,1.2-.64Zm-.03.59c-.48,0-.72.52-.72,1.56s.24,1.56.73,1.56.73-.52.73-1.56c0-.52-.06-.91-.17-1.15-.12-.27-.31-.4-.57-.4Z"/>
        <path class="cls-1" d="m8.31.35c.57,0,.97.25,1.21.75.15.33.23.79.23,1.39,0,.66-.09,1.16-.28,1.49-.24.43-.64.65-1.17.65-.58,0-.99-.25-1.23-.75-.15-.33-.23-.79-.23-1.39,0-.66.09-1.16.28-1.49.24-.43.64-.64,1.2-.64Zm-.03.59c-.48,0-.72.52-.72,1.56s.24,1.56.73,1.56.73-.52.73-1.56c0-.52-.06-.91-.17-1.15-.12-.27-.31-.4-.57-.4Z"/>
        <path class="cls-1" d="m11.81,1.07c.49,0,.73.33.73.98s-.25.98-.74.98-.75-.33-.75-.98.25-.98.76-.98Zm-.02.33c-.2,0-.3.21-.3.64s.1.65.31.65.3-.22.3-.65-.1-.64-.31-.64Zm.12,3.24l1.37-3.64h.4l-1.37,3.64h-.4Zm1.89-2.02c.49,0,.73.33.73.98s-.25.98-.74.98-.75-.33-.75-.98.25-.98.76-.98Zm-.02.33c-.2,0-.3.22-.3.65s.1.64.31.64.3-.22.3-.65-.1-.64-.31-.64Z"/>
      </g>
      <path class="cls-1" d="m1.94,4.51V1.16l-.76.51-.31-.57,1.15-.74h.63v4.15h-.71Z"/>
    </g>
  </g>
</svg>