<?xml version="1.0" encoding="utf-8"?>
<!-- Generator: Adobe Illustrator 25.2.3, SVG Export Plug-In . SVG Version: 6.00 Build 0)  -->
<svg version="1.2" baseProfile="tiny" xmlns="http://www.w3.org/2000/svg" xmlns:xlink="http://www.w3.org/1999/xlink" x="0px"
	 y="0px" viewBox="0 0 16 16" overflow="visible" xml:space="preserve">
<g id="Normal">
	<path id="Shape_1_" fill="#697882" d="M13.5,13.5c-0.5-1.5-1.1-2.1-1.9-2.1c-0.3,0-0.5,0.1-0.9,0.7l-0.2,0.3
		c-0.8,1.3-1.4,1.8-2.6,1.8c-1.1,0-1.7-0.5-2.4-1.6L5.2,12c-0.4-0.5-0.6-0.7-0.9-0.7c-0.7,0-1.4,0.6-1.9,2.1
		c-0.2,0.5-0.7,0.7-1.2,0.6c-0.5-0.2-0.7-0.7-0.6-1.2c0.7-2.1,1.9-3.3,3.6-3.3c1.1,0,1.7,0.5,2.4,1.6l0.3,0.5
		c0.4,0.5,0.6,0.7,0.9,0.7c0.3,0,0.5-0.1,0.9-0.7l0.2-0.3c0.8-1.3,1.4-1.8,2.6-1.8c1.7,0,2.9,1.2,3.6,3.3c0.2,0.5-0.1,1-0.6,1.2
		C14.2,14.2,13.7,13.9,13.5,13.5L13.5,13.5z"/>
	<g id="Layer_3">
		<polygon fill="#697882" points="8.6,2.1 8.6,7.2 10.3,6 10.8,6.5 8,9.3 5.3,6.6 5.8,6 7.5,7.2 7.6,2.1 		"/>
	</g>
</g>
<g id="Active">
	<path fill="#5A7487" d="M15,16H1c-0.5,0-1-0.4-1-1L0,1c0-0.6,0.5-1,1-1l14,0c0.6,0,1,0.4,1,1v14C16,15.6,15.6,16,15,16z"/>
	<path id="Shape_2_" fill="#F3F4F6" d="M13.5,13.5c-0.5-1.5-1.1-2.1-1.9-2.1c-0.3,0-0.5,0.1-0.9,0.7l-0.2,0.3
		c-0.8,1.3-1.4,1.8-2.6,1.8c-1.1,0-1.7-0.5-2.4-1.6L5.2,12c-0.4-0.5-0.6-0.7-0.9-0.7c-0.7,0-1.4,0.6-1.9,2.1
		c-0.2,0.5-0.7,0.7-1.2,0.6c-0.5-0.2-0.7-0.7-0.6-1.2c0.7-2.1,1.9-3.3,3.6-3.3c1.1,0,1.7,0.5,2.4,1.6l0.3,0.5
		c0.4,0.5,0.6,0.7,0.9,0.7c0.3,0,0.5-0.1,0.9-0.7l0.2-0.3c0.8-1.3,1.4-1.8,2.6-1.8c1.7,0,2.9,1.2,3.6,3.3c0.2,0.5-0.1,1-0.6,1.2
		C14.2,14.2,13.7,13.9,13.5,13.5L13.5,13.5z"/>
	<polygon fill="#F3F4F6" points="8.6,2.1 8.6,7.2 10.3,6 10.8,6.5 8,9.3 5.3,6.6 5.8,6 7.5,7.2 7.6,2.1 	"/>
</g>
</svg>
