<?xml version="1.0" encoding="UTF-8"?>
<svg id="Ebene_2" data-name="Ebene 2" xmlns="http://www.w3.org/2000/svg" width="14.53" height="12.91" viewBox="0 0 14.53 12.91">
  <defs>
    <style>
      .cls-1 {
        fill: #697882;
      }

      .cls-2 {
        fill: red;
      }
    </style>
  </defs>
  <g id="Actions">
    <g id="Icon-TraceStop-OFF-default-16er_Kopie" data-name="Icon-TraceStop-OFF-default-16er Kopie">
      <path id="Shape" class="cls-1" d="m12.76,3.92c-.5-1.48-1.11-2.1-1.86-2.1-.3,0-.49.13-.87.68l-.19.28c-.84,1.26-1.4,1.77-2.57,1.77-1.11,0-1.67-.45-2.44-1.57l-.32-.47c-.38-.54-.57-.68-.87-.68-.75,0-1.37.62-1.86,2.1-.16.48-.67.73-1.15.58-.48-.16-.73-.67-.58-1.15C.77,1.2,1.96,0,3.64,0c1.11,0,1.67.45,2.44,1.57l.32.47c.38.54.57.68.87.68s.49-.13.87-.68l.19-.28c.85-1.26,1.4-1.77,2.57-1.77,1.67,0,2.87,1.2,3.59,3.35.16.48-.1.99-.58,1.15-.48.16-.99-.1-1.15-.58h0Z"/>
      <path class="cls-2" d="m7.88,12.91l2.17-2.84-2.04-2.77h1.48l1.29,1.87,1.38-1.87h1.42l-2.09,2.71,2.13,2.9h-1.48l-1.39-1.97-1.46,1.97h-1.42Z"/>
    </g>
  </g>
</svg>