<?xml version="1.0" encoding="UTF-8"?>
<svg id="Ebene_2" data-name="Ebene 2" xmlns="http://www.w3.org/2000/svg" width="14.4" height="14.91" viewBox="0 0 14.4 14.91">
  <defs>
    <style>
      .cls-1 {
        fill: #5d6a73;
      }

      .cls-2 {
        fill: #697882;
      }
    </style>
  </defs>
  <g id="Zoom">
    <g id="Icon-zoom100Procent-OFF-default-16er">
      <path class="cls-2" d="m8.72,4.51c2.43,0,4.4,1.97,4.4,4.4,0,1.04-.36,2-.97,2.75l1.85,1.96c.29.3.28.79-.02,1.08-.14.14-.33.21-.53.21-.17,0-.33-.05-.46-.15l-.09-.08-1.9-2.01c-.67.41-1.45.64-2.29.64-2.43,0-4.4-1.97-4.4-4.4s1.97-4.4,4.4-4.4Zm0,1.8c-1.44,0-2.6,1.16-2.6,2.6s1.16,2.6,2.6,2.6,2.6-1.16,2.6-2.6-1.16-2.6-2.6-2.6Z"/>
      <g>
        <path class="cls-1" d="m4.28.04c.57,0,.97.25,1.21.75.15.33.23.79.23,1.39,0,.66-.09,1.16-.28,1.49-.24.43-.64.65-1.17.65-.58,0-.99-.25-1.23-.75-.15-.33-.23-.79-.23-1.39,0-.66.09-1.16.28-1.49.24-.43.64-.64,1.2-.64Zm-.03.59c-.48,0-.72.52-.72,1.56s.24,1.56.73,1.56.73-.52.73-1.56c0-.52-.06-.91-.17-1.15-.12-.27-.31-.4-.57-.4Z"/>
        <path class="cls-1" d="m7.43.04c.57,0,.97.25,1.21.75.15.33.23.79.23,1.39,0,.66-.09,1.16-.28,1.49-.24.43-.64.65-1.17.65-.58,0-.99-.25-1.23-.75-.15-.33-.23-.79-.23-1.39,0-.66.09-1.16.28-1.49.24-.43.64-.64,1.2-.64Zm-.03.59c-.48,0-.72.52-.72,1.56s.24,1.56.73,1.56.73-.52.73-1.56c0-.52-.06-.91-.17-1.15-.12-.27-.31-.4-.57-.4Z"/>
        <path class="cls-1" d="m11.12.07c.59,0,.88.39.88,1.17s-.3,1.18-.89,1.18-.89-.39-.89-1.18.3-1.17.91-1.17Zm-.02.4c-.24,0-.36.26-.36.77s.12.78.37.78.37-.26.37-.78-.12-.77-.37-.77Zm.15,3.89l1.64-4.37h.48l-1.64,4.37h-.48Zm2.27-2.42c.59,0,.88.39.88,1.17s-.3,1.18-.89,1.18-.89-.39-.89-1.18.3-1.17.91-1.17Zm-.02.4c-.24,0-.36.26-.36.78s.12.77.37.77.37-.26.37-.78-.12-.77-.37-.77Z"/>
      </g>
      <path class="cls-1" d="m1.07,4.2V.85l-.76.51-.31-.57L1.15.05h.63v4.15h-.71Z"/>
    </g>
  </g>
</svg>