<svg xmlns="http://www.w3.org/2000/svg" width="16" height="16" viewBox="0 0 16 16">
  <path fill="#697882" d="M1.8,11.4 C2.18297522,11.9106336 2.57902324,12.2927796 2.99356096,12.5553137 C3.74905601,13.5379063 4.59526376,14.3207591 5.52487929,14.8901342 C5.19396053,14.9632233 4.85184917,15 4.5,15 C2.82924742,15 1.37806444,14.1707526 0.2,12.6 C-0.13137085,12.1581722 -0.0418277999,11.5313708 0.4,11.2 C0.8418278,10.8686292 1.46862915,10.9581722 1.8,11.4 Z M9.5,6 C11.9779134,6 14.0545547,7.26518281 15.6691425,9.69326155 L15.8466365,9.96782845 L16.1811444,10.5 L15.8466365,11.0321715 C14.2078296,13.6393644 12.069688,15 9.5,15 C7.02208658,15 4.94544525,13.7348172 3.33085754,11.3067385 L3.15336345,11.0321715 L2.81885562,10.5 L3.15336345,9.96782845 C4.79217041,7.36063556 6.93031201,6 9.5,6 Z M9.5,7 C11.4329962,7 13,8.56700342 13,10.4985641 C13.0006665,11.4275599 12.6320971,12.3184927 11.975295,12.9752947 C11.3690883,13.5815015 10.5633464,13.9422469 9.71361793,13.9936349 L9.50035943,14 L9.75221893,13.9948225 C11.8404832,13.9085306 13.5897436,12.7435897 15,10.5 C13.5897436,8.25641026 11.8404832,7.09146943 9.75221893,7.00517751 L9.5,7 Z M9.30796478,7.00517886 L9.49598703,7.00000129 C7.29777048,7.0014193 5.4657748,8.16808554 4,10.5000013 C5.41025641,12.7435897 7.15951677,13.9085306 9.24778107,13.9948225 L9.3083016,13.9948225 C7.46439884,13.8951348 6,12.3686883 6,10.5000013 C6,8.63143638 7.46427741,7.10487354 9.30796478,7.00517886 Z M9.5,9 C8.67157267,9 8,9.67157264 8,10.5 C8,11.3284265 8.67157287,12 9.50035943,12 C9.89817648,12.0002857 10.2797823,11.8423803 10.5610814,11.5610812 C10.8423804,11.2797822 11.0002859,10.8981764 11,10.5 C11,9.67157284 10.3284266,9 9.5,9 Z M12,1 C13.8414662,1 15.1604057,2.31893947 15.9486833,4.68377223 C16.1233311,5.20771555 15.8401711,5.77403553 15.3162278,5.9486833 C14.7922844,6.12333107 14.2259645,5.84017108 14.0513167,5.31622777 C13.506261,3.68106053 12.8252004,3 12,3 C11.6724889,3 11.4656066,3.14689276 11.0434179,3.74532787 L10.8320503,4.0547002 C10.575091,4.4401392 10.3420313,4.76134317 10.1119311,5.02431364 C9.91070508,5.00767856 9.70657852,5 9.5,5 C8.4393182,5 7.44327837,5.20243232 6.51825102,5.59657628 C6.10428198,5.318739 5.73724867,4.88539046 5.311914,4.26740092 L4.95658212,3.74532787 C4.53439345,3.14689276 4.32751112,3 4,3 C3.17479957,3 2.49373904,3.68106053 1.9486833,5.31622777 C1.77403553,5.84017108 1.20771555,6.12333107 0.683772234,5.9486833 C0.159828916,5.77403553 -0.123331071,5.20771555 0.0513167019,4.68377223 C0.839594289,2.31893947 2.15853376,1 4,1 C5.22093926,1 5.83809611,1.4976072 6.688086,2.73259908 L7.04341788,3.25467213 C7.46560655,3.85310724 7.67248888,4 8,4 C8.32751112,4 8.53439345,3.85310724 8.95658212,3.25467213 L9.16794971,2.9452998 C10.0951944,1.55443272 10.7112308,1 12,1 Z"/>
</svg>
