<?xml version="1.0" encoding="utf-8"?>
<!-- Generator: Adobe Illustrator 25.3.1, SVG Export Plug-In . SVG Version: 6.00 Build 0)  -->
<svg version="1.2" baseProfile="tiny" xmlns="http://www.w3.org/2000/svg" xmlns:xlink="http://www.w3.org/1999/xlink" x="0px"
	 y="0px" viewBox="0 0 16 16" overflow="visible" xml:space="preserve">
<g id="Normal">
	<path id="Shape_3_" fill="#697882" d="M13.5,2.7c0.2-0.5,0.7-0.7,1.2-0.6c0.5,0.2,0.7,0.7,0.6,1.2c-0.7,2.1-1.9,3.3-3.6,3.3
		c-1.2,0-1.7-0.5-2.6-1.8L8.9,4.6C8.5,4,8.3,3.9,8,3.9C7.7,3.9,7.5,4,7.1,4.6L6.8,5.1C6,6.2,5.5,6.6,4.4,6.6c-1.7,0-2.9-1.2-3.6-3.3
		c-0.2-0.5,0.1-1,0.6-1.2c0.5-0.2,1,0.1,1.2,0.6C3,4.2,3.6,4.8,4.4,4.8c0.3,0,0.5-0.1,0.9-0.7l0.3-0.5C6.3,2.6,6.9,2.1,8,2.1
		c1.2,0,1.7,0.5,2.6,1.8l0.2,0.3c0.4,0.5,0.6,0.7,0.9,0.7C12.4,4.8,13,4.2,13.5,2.7L13.5,2.7z"/>
	<g id="Layer_3">
		<polygon fill="#697882" points="8.6,14.1 8.6,9 10.3,10.2 10.8,9.7 8,6.9 5.3,9.6 5.8,10.1 7.5,8.9 7.6,14.1 		"/>
	</g>
</g>
<g id="Active">
	<path fill="#5A7487" d="M15,0L1,0C0.5,0,0,0.4,0,1l0,14c0,0.6,0.5,1,1,1h14c0.6,0,1-0.4,1-1V1C16,0.4,15.6,0,15,0z"/>
	<path id="Shape_2_" fill="#F3F4F6" d="M13.5,2.5c0.2-0.5,0.7-0.7,1.2-0.6c0.5,0.2,0.7,0.7,0.6,1.2c-0.7,2.1-1.9,3.3-3.6,3.3
		c-1.2,0-1.7-0.5-2.6-1.8L8.9,4.4C8.5,3.9,8.3,3.7,8,3.7c-0.3,0-0.5,0.1-0.9,0.7L6.8,4.9C6,6,5.5,6.5,4.4,6.5
		c-1.7,0-2.9-1.2-3.6-3.3C0.6,2.6,0.9,2.1,1.4,2s1,0.1,1.2,0.6C3,4,3.6,4.6,4.4,4.6c0.3,0,0.5-0.1,0.9-0.7l0.3-0.5
		C6.3,2.4,6.9,1.9,8,1.9c1.2,0,1.7,0.5,2.6,1.8L10.8,4c0.4,0.5,0.6,0.7,0.9,0.7C12.4,4.6,13,4,13.5,2.5L13.5,2.5z"/>
	<polygon fill="#F3F4F6" points="8.6,13.9 8.6,8.8 10.3,10 10.8,9.5 8,6.7 5.3,9.4 5.8,10 7.5,8.8 7.6,13.9 	"/>
</g>
</svg>
