<?xml version="1.0" encoding="utf-8"?>
<!-- Generator: Adobe Illustrator 25.2.3, SVG Export Plug-In . SVG Version: 6.00 Build 0)  -->
<svg version="1.2" baseProfile="tiny" xmlns="http://www.w3.org/2000/svg" xmlns:xlink="http://www.w3.org/1999/xlink" x="0px"
	 y="0px" viewBox="0 0 16 16" overflow="visible" xml:space="preserve">
<g id="Normal">
	<path fill="#697882" d="M3.3,8.4c0-3.3,2.7-6,6-6s6,2.7,6,6c0,2.7-1.7,4.9-4.1,5.7l-0.9-1.8c1.8-0.4,3.1-2,3.1-3.9c0-2.2-1.8-4-4-4
		s-4,1.8-4,4l0,0H3.3z M3.6,10.6l-2.9-5l1-0.6l1.9,2.4l1.6,0.4l2.9-1.2l0.6,1L3.6,10.6z"/>
</g>
<g id="Active" display="none">
	<path display="inline" fill="#5A7487" d="M15,16H1c-0.6,0-1-0.4-1-1L0,1c0-0.6,0.4-1,1-1h14c0.6,0,1,0.4,1,1v14
		C16,15.6,15.6,16,15,16z"/>
	<path display="inline" fill="#F3F4F6" d="M3.2,8.4c0-3.3,2.7-6,6-6s6,2.7,6,6c0,2.7-1.7,4.9-4.1,5.7l-0.9-1.8
		c1.8-0.4,3.1-2,3.1-3.9c0-2.2-1.8-4-4-4s-4,1.8-4,4l0,0H3.2z M3.6,10.6l-2.9-5l1-0.6l1.9,2.4l1.6,0.4l2.9-1.2l0.6,1L3.6,10.6z"/>
</g>
</svg>
