<?xml version="1.0" encoding="utf-8"?>
<!-- Generator: Adobe Illustrator 25.3.1, SVG Export Plug-In . SVG Version: 6.00 Build 0)  -->
<svg version="1.2" baseProfile="tiny" xmlns="http://www.w3.org/2000/svg" xmlns:xlink="http://www.w3.org/1999/xlink" x="0px"
	 y="0px" viewBox="0 0 16 16" overflow="visible" xml:space="preserve">
<g id="Normal" display="none">
	<path display="inline" fill="#697882" d="M9.5,5.1c2.4,0,4.4,2,4.4,4.4c0,1-0.4,2-1,2.8l1.9,2c0.3,0.3,0.3,0.8,0,1.1
		c-0.1,0.1-0.3,0.2-0.5,0.2c-0.2,0-0.3-0.1-0.5-0.2l-0.1-0.1l-1.9-2c-0.7,0.4-1.4,0.6-2.3,0.6c-2.4,0-4.4-2-4.4-4.4S7.1,5.1,9.5,5.1
		z M1.9,11.2l0.5,1.2l0.1,0.2l0.2,0.4l0,0l0.1-0.3l0,0l0.1-0.3l0.5-1.2h0.8L3,14.1l-0.1,0.3l0,0l-0.1,0.2c0,0,0,0.1,0,0.1
		c-0.1,0.2-0.3,0.4-0.4,0.5c-0.2,0.1-0.3,0.1-0.6,0.1c-0.2,0-0.4,0-0.5-0.1L1,15.1l0.1-0.6l0.1,0c0.1,0,0.2,0.1,0.3,0.1
		c0.1,0,0.2,0,0.3-0.1C1.9,14.4,2,14.2,2.1,14l0.1-0.1L1,11.2H1.9z M9.5,6.9c-1.4,0-2.6,1.2-2.6,2.6s1.2,2.6,2.6,2.6
		s2.6-1.2,2.6-2.6S10.9,6.9,9.5,6.9z M3.4,0.9l2.8,2.8L5.6,4.2L4,2.9l0,7.1l-1,0L2.8,2.9L1.2,4.1L0.7,3.6L3.4,0.9z"/>
</g>
<g id="Active">
	<path fill="#5A7487" d="M15,16H1c-0.6,0-1-0.4-1-1L0,1c0-0.6,0.4-1,1-1l14,0c0.6,0,1,0.4,1,1v14C16,15.6,15.6,16,15,16z"/>
	<g id="Layer_3">
		<path fill="#F3F4F6" d="M2.2,1l0.5,1.2l0.1,0.2L3,2.9l0,0l0.1-0.3l0,0l0.1-0.3L3.6,1h0.8L3.3,3.9L3.1,4.2l0,0L3,4.4
			c0,0,0,0.1,0,0.1C2.9,4.7,2.7,4.8,2.6,4.9C2.4,5,2.2,5.1,2,5.1C1.8,5.1,1.7,5,1.5,5L1.3,4.9l0.1-0.6l0.1,0c0.1,0,0.2,0.1,0.3,0.1
			c0.1,0,0.2,0,0.3-0.1C2.3,4.2,2.3,4,2.4,3.9l0.1-0.1L1.3,1H2.2z"/>
		<polygon fill="#F3F4F6" points="2.5,6.5 4.8,8.9 4.4,9.3 3,8.2 3,14.3 2.2,14.3 2.1,8.2 0.7,9.2 0.3,8.8 		"/>
		<polygon display="none" fill="#F3F4F6" points="7.7,11.8 9.9,13.8 7.6,15.9 7.1,15.5 8.2,14.3 2.2,14.3 2.2,13.4 8.2,13.4 
			7.2,12.3 		"/>
		<polygon display="none" fill="#F3F4F6" points="12.8,12 13.4,12.8 14.1,12 15,12 13.9,13.5 15,15 14.1,15 13.4,14.1 12.7,15 
			11.8,15 13,13.5 11.9,12 		"/>
		<path fill="#F3F4F6" d="M9.5,0.9c2.4,0,4.4,2,4.4,4.4c0,1-0.4,2-1,2.8l1.9,2c0.3,0.3,0.3,0.8,0,1.1c-0.1,0.1-0.3,0.2-0.5,0.2
			c-0.2,0-0.3-0.1-0.5-0.2l-0.1-0.1l-1.9-2c-0.7,0.4-1.4,0.6-2.3,0.6c-2.4,0-4.4-2-4.4-4.4S7.1,0.9,9.5,0.9z M9.5,2.7
			c-1.4,0-2.6,1.2-2.6,2.6s1.2,2.6,2.6,2.6s2.6-1.2,2.6-2.6S10.9,2.7,9.5,2.7z"/>
	</g>
</g>
<g id="Normal_1_" display="none">
	<path fill="#5A7487" d="M15,16H1c-0.6,0-1-0.4-1-1L0,1c0-0.6,0.4-1,1-1l14,0c0.6,0,1,0.4,1,1v14C16,15.6,15.6,16,15,16z"/>
	<g id="Layer_3_Kopie" display="inline">
		<path display="none" fill="#697882" d="M2.2,1l0.5,1.2l0.1,0.2L3,2.9l0,0l0.1-0.3l0,0l0.1-0.3L3.6,1h0.8L3.3,3.9L3.1,4.2l0,0
			L3,4.4c0,0,0,0.1,0,0.1C2.9,4.7,2.7,4.8,2.6,4.9C2.4,5,2.2,5.1,2,5.1C1.8,5.1,1.7,5,1.5,5L1.3,4.9l0.1-0.6l0.1,0
			c0.1,0,0.2,0.1,0.3,0.1c0.1,0,0.2,0,0.3-0.1C2.3,4.2,2.3,4,2.4,3.9l0.1-0.1L1.3,1H2.2z"/>
		<polygon display="none" fill="#697882" points="2.5,6.5 4.8,8.9 4.4,9.3 3,8.2 3,14.3 2.2,14.3 2.1,8.2 0.7,9.2 0.3,8.8 		"/>
		<polygon fill="#697882" points="7.7,11.8 9.9,13.8 7.6,15.9 7.1,15.5 8.2,14.3 2.2,14.3 2.2,13.4 8.2,13.4 7.2,12.3 		"/>
		<polygon fill="#697882" points="12.8,12 13.4,12.8 14.1,12 15,12 13.9,13.5 15,15 14.1,15 13.4,14.1 12.7,15 11.8,15 13,13.5 
			11.9,12 		"/>
		<path fill="#697882" d="M9.5,0.9c2.4,0,4.4,2,4.4,4.4c0,1-0.4,2-1,2.8l1.9,2c0.3,0.3,0.3,0.8,0,1.1c-0.1,0.1-0.3,0.2-0.5,0.2
			c-0.2,0-0.3-0.1-0.5-0.2l-0.1-0.1l-1.9-2c-0.7,0.4-1.4,0.6-2.3,0.6c-2.4,0-4.4-2-4.4-4.4S7.1,0.9,9.5,0.9z M9.5,2.7
			c-1.4,0-2.6,1.2-2.6,2.6s1.2,2.6,2.6,2.6s2.6-1.2,2.6-2.6S10.9,2.7,9.5,2.7z"/>
	</g>
</g>
</svg>
