<svg xmlns="http://www.w3.org/2000/svg" width="16" height="16"><rect id="backgroundrect" width="100%" height="100%" x="0" y="0" fill="none" stroke="none" class="" style=""/>
  
<g class="currentLayer" style=""><title>Layer 1</title><path fill="#697882" d="M13.662367038666034,2.0198564076115106 C13.876863395788597,2.23435281548499 13.896363108558106,2.5700046610936838 13.72086601586054,2.8065293272245198 L13.662367038666034,2.8742926355897565 L2.3843842587791526,14.152275415476637 C2.148438209554431,14.38822144858996 1.7658940768033538,14.38822144858996 1.5299480275786266,14.152275415476637 C1.3154516221218602,13.93777897779706 1.2959519496308567,13.602127118493675 1.4714490101056117,13.365602444307138 L1.5299480275786266,13.297839168164707 L3.2587287315637017,11.568767403611403 C1.908182762555565,10.73691233619033 0.7581944339798191,9.549422096795098 -0.05675935179096356,8.086967500070669 C1.6090058490161607,5.093890295900511 4.678512854911254,3.251842643954106 7.99894262808845,3.2526441943568045 C9.050909038026091,3.2523902464075922 10.077689698508735,3.4371078714242205 11.042625365422513,3.7847974064746515 L12.807930791354103,2.0198564076115106 C13.043876824467427,1.7839103591923562 13.426421005552712,1.7839103591923562 13.662367038666034,2.0198564076115106 zM12.985601634673916,4.760205115399982 C14.229991858866269,5.582101643476505 15.29015260941486,6.71331443466792 16.054644607967873,8.086967500070669 C14.387617135050409,11.078489325413958 11.31871505598409,12.919486529933593 7.99894262808845,12.919486529933593 C7.055543719303843,12.919486529933593 6.132404014871414,12.770815247057106 5.255937839355106,12.489318085984518 L5.9053107148918595,11.84044635566793 C6.5814357711335925,12.020020841922612 7.283942284675194,12.113916170831612 7.99894262808845,12.113916170831612 C7.314024450907597,12.113916170831612 6.6690347633751195,11.94296201070858 6.104315634879029,11.641395759850536 L7.335469374034199,10.410471849872854 C7.54645102838293,10.470590023165318 7.769219141412466,10.502776499868908 7.999522074731864,10.502776499868908 C8.640461274751837,10.503237688807255 9.255281794470532,10.248829839567506 9.708494218389214,9.795617415648826 C10.161706561750872,9.34240507228717 10.416114410990627,8.727584552568473 10.415653222052272,8.086065905905084 C10.415653222052272,7.855862919680149 10.383466745348683,7.633177474264333 10.323348572056222,7.422264309493833 L11.554273045933042,6.191246824481949 C11.855839377348106,6.755880457812929 12.026793618028158,7.400746683656864 12.026793618028158,8.08548645926167 C12.02756205144002,9.154128091740644 11.603386244193777,10.179221968785725 10.847742467581432,10.934865664841045 C10.092098690969092,11.690509522010407 9.067004813924008,12.114685329256652 7.99894262808845,12.113916170831612 C10.876612492336923,12.113916170831612 13.551902661367798,10.592972086529606 15.11943681751342,8.08671978723479 C14.412190490040894,6.954641725038015 13.478851864116834,6.023494620614775 12.402870117664857,5.342666661668591 L12.985601634673916,4.760205115399982 zM0.8784484144963843,8.08671978723479 C1.640464670271308,9.305069584214888 2.6642621431967677,10.290574567784262 3.8458319169232027,10.981701355038025 L4.591973993050277,10.235564434560217 C4.198712747722016,9.613549093509425 3.971091638148743,8.876389060644302 3.971091638148743,8.086065188947607 C3.971091638148743,5.920085048492524 5.680758505544838,4.153418031700895 7.824222830074923,4.061935538593207 L7.999137253848285,4.0582141990078995 L7.999137253848285,4.0582141990078995 C5.120645546883823,4.05751970082881 2.4449510057806663,5.579243722085103 0.8784484144963843,8.08671978723479 zM7.99894262808845,5.669355311941259 C6.664230020486242,5.669355311941259 5.582232034124626,6.751353314414276 5.582232034124626,8.086065905905084 C5.582232034124626,8.427317025872222 5.652961339179027,8.752048478903262 5.780569780873819,9.046400252516376 L8.959276958588337,5.867683343513868 C8.664925233309443,5.740084649218467 8.340193764166996,5.669355311941259 7.99894262808845,5.669355311941259 zM7.999137253848285,4.0582141990078995 L8.173662426101977,4.06193624749498 C8.897831366723631,4.092843454557058 9.572485693454896,4.314958765720952 10.148423917541347,4.67906012602508 L10.40616223565064,4.421262872400105 C9.634797756624565,4.18326234527664 8.825306687368972,4.058014844551004 7.999137253848285,4.0582141990078995 z" id="svg_1" class=""/></g></svg>