<?xml version="1.0" encoding="utf-8"?>
<!-- Generator: Adobe Illustrator 25.2.3, SVG Export Plug-In . SVG Version: 6.00 Build 0)  -->
<svg version="1.2" baseProfile="tiny" xmlns="http://www.w3.org/2000/svg" xmlns:xlink="http://www.w3.org/1999/xlink" x="0px"
	 y="0px" viewBox="0 0 16 16" overflow="visible" xml:space="preserve">
<g id="Normal">
	<path id="Shape" fill="#697882" d="M13.5,5.4c-0.5-1.5-1.1-2.1-1.9-2.1c-0.3,0-0.5,0.1-0.9,0.7l-0.2,0.3C9.7,5.5,9.2,6,8,6
		C6.9,6,6.3,5.6,5.6,4.5L5.2,4C4.9,3.5,4.7,3.3,4.4,3.3C3.6,3.3,3,3.9,2.5,5.4C2.3,5.9,1.8,6.2,1.4,6C0.9,5.8,0.6,5.3,0.8,4.9
		c0.7-2.1,1.9-3.3,3.6-3.3C5.5,1.5,6,2,6.8,3.1l0.3,0.5C7.5,4.1,7.7,4.2,8,4.2c0.3,0,0.5-0.1,0.9-0.7l0.2-0.3
		c0.8-1.3,1.4-1.8,2.6-1.8c1.7,0,2.9,1.2,3.6,3.3c0.2,0.5-0.1,1-0.6,1.2C14.2,6.2,13.7,5.9,13.5,5.4L13.5,5.4z"/>
	<path id="Shape_1_" fill="#697882" d="M13.5,13.5c-0.5-1.5-1.1-2.1-1.9-2.1c-0.3,0-0.5,0.1-0.9,0.7l-0.2,0.3
		c-0.8,1.3-1.4,1.8-2.6,1.8c-1.1,0-1.7-0.5-2.4-1.6L5.2,12c-0.4-0.5-0.6-0.7-0.9-0.7c-0.7,0-1.4,0.6-1.9,2.1
		c-0.2,0.5-0.7,0.7-1.2,0.6c-0.5-0.2-0.7-0.7-0.6-1.2c0.7-2.1,1.9-3.3,3.6-3.3c1.1,0,1.7,0.5,2.4,1.6l0.3,0.5
		c0.4,0.5,0.6,0.7,0.9,0.7c0.3,0,0.5-0.1,0.9-0.7l0.2-0.3c0.8-1.3,1.4-1.8,2.6-1.8c1.7,0,2.9,1.2,3.6,3.3c0.2,0.5-0.1,1-0.6,1.2
		C14.2,14.2,13.7,13.9,13.5,13.5L13.5,13.5z"/>
	<rect x="1" y="7" fill="#697882" width="14" height="1"/>
</g>
<g id="Active" display="none">
	<path display="inline" fill="#5A7487" d="M15,16H1c-0.5,0-1-0.4-1-1L0,1c0-0.6,0.5-1,1-1l14,0c0.6,0,1,0.4,1,1v14
		C16,15.6,15.6,16,15,16z"/>
	<path id="Shape_3_" display="inline" fill="#F3F4F6" d="M13.5,5.4c-0.5-1.5-1.1-2.1-1.9-2.1c-0.3,0-0.5,0.1-0.9,0.7l-0.2,0.3
		C9.7,5.5,9.2,6,8,6C6.9,6,6.3,5.6,5.6,4.5L5.2,4C4.9,3.5,4.7,3.3,4.4,3.3C3.6,3.3,3,3.9,2.5,5.4C2.3,5.9,1.8,6.2,1.4,6
		C0.9,5.8,0.6,5.3,0.8,4.9c0.7-2.1,1.9-3.3,3.6-3.3C5.5,1.5,6,2,6.8,3.1l0.3,0.5C7.5,4.1,7.7,4.2,8,4.2c0.3,0,0.5-0.1,0.9-0.7
		l0.2-0.3c0.8-1.3,1.4-1.8,2.6-1.8c1.7,0,2.9,1.2,3.6,3.3c0.2,0.5-0.1,1-0.6,1.2C14.2,6.2,13.7,5.9,13.5,5.4L13.5,5.4z"/>
	<path id="Shape_2_" display="inline" fill="#F3F4F6" d="M13.5,13.5c-0.5-1.5-1.1-2.1-1.9-2.1c-0.3,0-0.5,0.1-0.9,0.7l-0.2,0.3
		c-0.8,1.3-1.4,1.8-2.6,1.8c-1.1,0-1.7-0.5-2.4-1.6L5.2,12c-0.4-0.5-0.6-0.7-0.9-0.7c-0.7,0-1.4,0.6-1.9,2.1
		c-0.2,0.5-0.7,0.7-1.2,0.6c-0.5-0.2-0.7-0.7-0.6-1.2c0.7-2.1,1.9-3.3,3.6-3.3c1.1,0,1.7,0.5,2.4,1.6l0.3,0.5
		c0.4,0.5,0.6,0.7,0.9,0.7c0.3,0,0.5-0.1,0.9-0.7l0.2-0.3c0.8-1.3,1.4-1.8,2.6-1.8c1.7,0,2.9,1.2,3.6,3.3c0.2,0.5-0.1,1-0.6,1.2
		C14.2,14.2,13.7,13.9,13.5,13.5L13.5,13.5z"/>
	<rect x="1" y="7" display="inline" fill="#F3F4F6" width="14" height="1"/>
</g>
</svg>
