<?xml version="1.0" encoding="UTF-8"?>
<svg id="Zoom" xmlns="http://www.w3.org/2000/svg" width="16" height="16" viewBox="0 0 16 16">
  <defs>
    <style>
      .cls-1, .cls-2 {
        fill: #fff;
      }

      .cls-3 {
        fill: #5a7487;
      }

      .cls-2 {
        fill-rule: evenodd;
        stroke: #fff;
        stroke-miterlimit: 10;
        stroke-width: .75px;
      }
    </style>
  </defs>
  <g id="Icon-ZoomLocked-ON-default-16er">
    <path class="cls-3" d="M15,0H1C.5,0,0,.4,0,1V15C0,15.6,.5,16,1,16H15c.6,0,1-.4,1-1V1c0-.6-.4-1-1-1Z"/>
    <g id="Icon">
      <path class="cls-2" d="M14.91,10.78v4.34H7.97v-4.34h.87v-1.73c0-1.43,1.17-2.6,2.6-2.6s2.6,1.17,2.6,2.6v1.73h.87Zm-6.07,.87v2.6h5.2v-2.6h-5.2Zm.87-2.6c0-.94,.77-1.73,1.73-1.73s1.73,.79,1.73,1.73v1.73h-3.47v-1.73Z"/>
    </g>
    <path class="cls-1" d="M4.25,.98c1.8,0,3.26,1.46,3.26,3.26,0,.77-.27,1.48-.72,2.04l1.37,1.45c.22,.23,.21,.58-.02,.8-.11,.1-.25,.16-.39,.16-.12,0-.24-.04-.34-.11l-.07-.06-1.41-1.49c-.49,.3-1.07,.47-1.7,.47-1.8,0-3.26-1.46-3.26-3.26S2.45,.98,4.25,.98Zm0,1.33c-1.06,0-1.93,.86-1.93,1.93s.86,1.93,1.93,1.93,1.93-.86,1.93-1.93-.86-1.93-1.93-1.93Z"/>
  </g>
</svg>