<?xml version="1.0" encoding="utf-8"?>
<!-- Generator: Adobe Illustrator 25.3.1, SVG Export Plug-In . SVG Version: 6.00 Build 0)  -->
<svg version="1.2" baseProfile="tiny" xmlns="http://www.w3.org/2000/svg" xmlns:xlink="http://www.w3.org/1999/xlink" x="0px"
	 y="0px" viewBox="0 0 16 16" overflow="visible" xml:space="preserve">
<g id="Active" display="none">
	<g id="Layer_3" display="inline">
	</g>
	<path display="inline" fill="#5A7487" d="M15,16H1c-0.6,0-1-0.4-1-1L0,1c0-0.6,0.4-1,1-1l14,0c0.6,0,1,0.4,1,1v14
		C16,15.6,15.6,16,15,16z"/>
	<g id="Layer_2" display="inline">
		<path id="Path-2" fill="#FFFFFF" d="M14,13v1l-0.1,0H2v-1H14z"/>
		<path id="Path-4" fill="#FFFFFF" d="M14,11v1H2v-1H14z"/>
	</g>
	<polygon display="inline" fill-rule="evenodd" fill="#FFFFFF" points="4.3,3.7 6.3,3.7 6.3,5.7 8.3,5.7 8.3,7.7 6.3,7.7 6.3,9.7 
		4.3,9.7 4.3,7.7 2.3,7.7 2.3,5.7 4.3,5.7 	"/>
</g>
<g id="normal">
	<path id="Path-2_1_" fill="#697882" d="M14,13v1l-0.1,0H2v-1H14z"/>
	<path id="Path-4_1_" fill="#697882" d="M14,11v1H2v-1H14z"/>
	<polygon fill-rule="evenodd" fill="#697882" points="4.4,3.7 6.4,3.7 6.4,5.7 8.4,5.7 8.4,7.7 6.4,7.7 6.4,9.7 4.4,9.7 4.4,7.7 
		2.4,7.7 2.4,5.7 4.4,5.7 	"/>
</g>
</svg>
