<svg xmlns="http://www.w3.org/2000/svg" width="16" height="16" style=""><rect id="backgroundrect" width="100%" height="100%" x="0" y="0" fill="none" stroke="none" class="" style=""/>
  
<g class="currentLayer" style=""><title>Layer 1</title><path fill="#697882" d="M8.002186061151885,1.1650198145531232 C9.381203059818198,0.05501662083130271 10.979973064310787,0.4014966870983411 12.668340157173036,2.0864379115772427 C14.307687958319304,3.7224592460421255 14.661587472061155,5.257951311728826 13.615104846633313,6.560937218462769 L13.509456794802308,6.68630236877269 L13.219598605085134,7.014631272110526 L11.965588789761659,5.762971579301063 L9.456919417456852,8.266550619903102 L9.500040713017059,8.3425000369322 C10.246611734174131,9.711115051546887 10.384949275924205,11.047095072931604 9.699279540202056,12.063642605541663 L9.600651386966335,12.200255803428965 L9.496434825378607,12.327311419240191 L9.094214949938488,12.75753251568003 L6.236785055279376,9.906337922658995 L3.6117718548044673,12.527280066171839 L3.5047836548346876,12.604236382629352 L1.8581348617965712,13.425890117383554 C1.5264037617712607,13.591419144137221 1.1757471408929951,13.272510691036539 1.278991166931689,12.941031639546946 L1.3058320756298551,12.874708057624057 L2.129156466754269,11.231400480222776 L2.204210394533443,11.12669864886959 L4.813257176400636,8.484876915140289 L1.9151800668147079,5.593064723785501 L2.206269195506727,5.302566243825955 C3.206362709257601,4.304502033137459 4.655472613606099,4.3232945868163135 6.163970260617913,5.090990471053273 L6.338269068072175,5.182879052950886 L6.405679217519355,5.21985842815278 L8.912701993564166,2.717101045709101 L7.645657921028361,1.451997696188669 L8.002186061151885,1.1650198145531232 zM5.302013251830757,9.15530320080407 L2.5946967044771196,11.884838116273478 L2.3395411346000428,12.392089327894524 L2.8498522743541947,12.138463722084001 L5.576327261690496,9.427972437793331 L5.302013251830757,9.15530320080407 z" id="svg_1" class="" transform="rotate(-43.763736724853516 7.73418474197388,6.997445583343505) "/></g></svg>