<?xml version="1.0" encoding="utf-8"?>
<!-- Generator: Adobe Illustrator 25.2.3, SVG Export Plug-In . SVG Version: 6.00 Build 0)  -->
<svg version="1.2" baseProfile="tiny" xmlns="http://www.w3.org/2000/svg" xmlns:xlink="http://www.w3.org/1999/xlink" x="0px"
	 y="0px" viewBox="0 0 16 16" overflow="visible" xml:space="preserve">
<g id="Active" display="none">
	<g id="Layer_3" display="inline">
		<path fill="#5A7487" d="M15,16H1c-0.6,0-1-0.4-1-1L0,1c0-0.6,0.4-1,1-1l14,0c0.6,0,1,0.4,1,1v14C16,15.6,15.6,16,15,16z"/>
	</g>
	<g id="Layer_2" display="inline">
		<path id="Path" fill="#F3F4F6" d="M3.3,7.6v2h-2v-2H3.3z"/>
		<path id="Path-2" fill="#F3F4F6" d="M7.3,7.6v1l0,0h-3v-1H7.3z"/>
		<path id="Path-3" fill="#F3F4F6" d="M3.3,4.6v2h-2v-2H3.3z"/>
		<path id="Path-4" fill="#F3F4F6" d="M10.3,4.6v1h-6v-1H10.3z"/>
		<path id="Path-5" fill="#F3F4F6" d="M3.3,1.6v2h-2v-2H3.3z"/>
		<path id="Path-6" fill="#F3F4F6" d="M8.3,1.6v1h-4v-1H8.3z"/>
	</g>
	<ellipse display="inline" fill="#5A7487" cx="8" cy="10.9" rx="3.3" ry="3.4"/>
	<path display="inline" fill="#F3F4F6" d="M9.7,7.7c2.1,0,3.9,1.1,5.3,3.2l0.2,0.2l0.3,0.5L15.2,12c-1.4,2.2-3.2,3.4-5.4,3.4
		c-2.1,0-3.9-1.1-5.3-3.2L4.3,12L4,11.5l0.3-0.5C5.7,8.8,7.5,7.7,9.7,7.7z M9.7,8.5c1.6,0,3,1.4,3,3c0,0.8-0.3,1.6-0.9,2.1
		c-0.5,0.5-1.2,0.8-1.9,0.9l-0.2,0l0.2,0c1.8-0.1,3.3-1.1,4.5-3c-1.2-1.9-2.7-2.9-4.5-3L9.7,8.5z M9.6,8.5l0.2,0c-1.9,0-3.4,1-4.7,3
		c1.2,1.9,2.7,2.9,4.5,3h0.1c-1.6-0.1-2.8-1.4-2.8-3C6.8,9.9,8,8.6,9.6,8.5z M9.7,10.2c-0.7,0-1.3,0.6-1.3,1.3
		c0,0.7,0.6,1.3,1.3,1.3c0.3,0,0.7-0.1,0.9-0.4c0.2-0.2,0.4-0.6,0.4-0.9C11,10.8,10.4,10.2,9.7,10.2z"/>
</g>
<g id="normal">
	<path id="Path_1_" fill="#697882" d="M3.3,7.6v2h-2v-2H3.3z"/>
	<path id="Path-2_1_" fill="#697882" d="M7.3,7.6v1l0,0h-3v-1H7.3z"/>
	<path id="Path-3_1_" fill="#697882" d="M3.3,4.6v2h-2v-2H3.3z"/>
	<path id="Path-4_1_" fill="#697882" d="M10.3,4.6v1h-6v-1H10.3z"/>
	<path id="Path-5_1_" fill="#697882" d="M3.3,1.6v2h-2v-2H3.3z"/>
	<path id="Path-6_1_" fill="#697882" d="M8.3,1.6v1h-4v-1H8.3z"/>
	<ellipse fill="#FFFFFF" cx="8" cy="10.9" rx="3.3" ry="3.4"/>
	<path fill="#697882" d="M9.8,7.7c2.1,0,3.9,1.1,5.3,3.2l0.2,0.2l0.3,0.5L15.2,12c-1.4,2.2-3.2,3.4-5.4,3.4c-2.1,0-3.9-1.1-5.3-3.2
		L4.3,12l-0.3-0.5l0.3-0.5C5.7,8.8,7.6,7.7,9.8,7.7z M9.8,8.5c1.6,0,3,1.4,3,3c0,0.8-0.3,1.6-0.9,2.1c-0.5,0.5-1.2,0.8-1.9,0.9
		l-0.2,0l0.2,0c1.8-0.1,3.3-1.1,4.5-3c-1.2-1.9-2.7-2.9-4.5-3L9.8,8.5z M9.6,8.5l0.2,0c-1.9,0-3.4,1-4.7,3c1.2,1.9,2.7,2.9,4.5,3
		h0.1c-1.6-0.1-2.8-1.4-2.8-3C6.8,9.9,8,8.6,9.6,8.5z M9.8,10.3c-0.7,0-1.3,0.6-1.3,1.3s0.6,1.3,1.3,1.3c0.3,0,0.7-0.1,0.9-0.4
		c0.2-0.2,0.4-0.6,0.4-0.9C11,10.8,10.5,10.3,9.8,10.3z"/>
</g>
</svg>
