<?xml version="1.0" encoding="utf-8"?>
<!-- Generator: Adobe Illustrator 25.3.1, SVG Export Plug-In . SVG Version: 6.00 Build 0)  -->
<svg version="1.2" baseProfile="tiny" xmlns="http://www.w3.org/2000/svg" xmlns:xlink="http://www.w3.org/1999/xlink" x="0px"
	 y="0px" viewBox="0 0 16 16" overflow="visible" xml:space="preserve">
<g id="Active">
	<g id="Layer_3">
	</g>
	<path fill="#5A7487" d="M15,16H1c-0.6,0-1-0.4-1-1L0,1c0-0.6,0.4-1,1-1l14,0c0.6,0,1,0.4,1,1v14C16,15.6,15.6,16,15,16z"/>
	<g id="Layer_2">
		<path id="Path-2" fill="#F3F4F6" d="M14,13v1l-0.1,0H2v-1H14z"/>
		<path id="Path-4" fill="#F3F4F6" d="M14,11v1H2v-1H14z"/>
	</g>
	<path fill="#F3F4F6" d="M9.7,2.7c2.1,0,3.9,1.1,5.3,3.2l0.2,0.2l0.3,0.5L15.2,7c-1.4,2.2-3.2,3.4-5.4,3.4c-2.1,0-3.9-1.1-5.3-3.2
		L4.3,7L4,6.5l0.3-0.5C5.7,3.8,7.5,2.7,9.7,2.7z M9.7,3.5c1.6,0,3,1.4,3,3c0,0.8-0.3,1.6-0.9,2.1c-0.5,0.5-1.2,0.8-1.9,0.9l-0.2,0
		l0.2,0c1.8-0.1,3.3-1.1,4.5-3c-1.2-1.9-2.7-2.9-4.5-3L9.7,3.5z M9.6,3.5l0.2,0c-1.9,0-3.4,1-4.7,3c1.2,1.9,2.7,2.9,4.5,3h0.1
		C8,9.5,6.8,8.1,6.8,6.5C6.8,4.9,8,3.6,9.6,3.5z M9.7,5.2C9,5.2,8.5,5.8,8.5,6.5c0,0.7,0.6,1.3,1.3,1.3c0.3,0,0.7-0.1,0.9-0.4
		C10.9,7.2,11,6.9,11,6.5C11,5.8,10.4,5.2,9.7,5.2z"/>
</g>
<g id="normal" display="none">
	<path id="Path-2_1_" display="inline" fill="#697882" d="M14,13v1l-0.1,0H2v-1H14z"/>
	<path id="Path-4_1_" display="inline" fill="#697882" d="M14,11v1H2v-1H14z"/>
	<ellipse display="inline" fill="#FFFFFF" cx="8.5" cy="5.6" rx="3.3" ry="3.4"/>
	<path display="inline" fill="#697882" d="M10.2,2.4c2.1,0,3.9,1.1,5.3,3.2l0.2,0.2l0.3,0.5l-0.3,0.5c-1.4,2.2-3.2,3.4-5.4,3.4
		c-2.1,0-3.9-1.1-5.3-3.2L4.8,6.7L4.5,6.3l0.3-0.5C6.2,3.6,8,2.4,10.2,2.4z M10.2,3.3c1.6,0,3,1.4,3,3c0,0.8-0.3,1.6-0.9,2.1
		c-0.5,0.5-1.2,0.8-1.9,0.9l-0.2,0l0.2,0c1.8-0.1,3.3-1.1,4.5-3c-1.2-1.9-2.7-2.9-4.5-3L10.2,3.3z M10,3.3l0.2,0c-1.9,0-3.4,1-4.7,3
		c1.2,1.9,2.7,2.9,4.5,3H10c-1.6-0.1-2.8-1.4-2.8-3C7.2,4.7,8.5,3.4,10,3.3z M10.2,5C9.5,5,8.9,5.6,8.9,6.3c0,0.7,0.6,1.3,1.3,1.3
		c0.3,0,0.7-0.1,0.9-0.4c0.2-0.2,0.4-0.6,0.4-0.9C11.5,5.6,10.9,5,10.2,5z"/>
</g>
</svg>
