<?xml version="1.0" encoding="utf-8"?>
<!-- Generator: Adobe Illustrator 25.2.3, SVG Export Plug-In . SVG Version: 6.00 Build 0)  -->
<svg version="1.2" baseProfile="tiny" xmlns="http://www.w3.org/2000/svg" xmlns:xlink="http://www.w3.org/1999/xlink" x="0px"
	 y="0px" viewBox="0 0 16 16" overflow="visible" xml:space="preserve">
<g id="Layer_8">
	<path id="Icon-MoveScroll-default-16er" fill="#697882" d="M8,0.7c-0.6,0.1-1,0.4-1.2,1l0,0C6.7,1.7,6.5,1.6,6.3,1.6l-0.1,0
		C5.5,1.7,5,2.3,5,3v4L4.8,6.7C4.6,6.2,4.1,5.9,3.6,5.9H3.3C2.6,5.9,2,6.5,2,7.2c0,0.1,0,0.3,0.1,0.4L3.5,12l0,0.1l0,0l0-0.1
		c0.2,0.6,0.5,1.1,0.9,1.5l0.3,0.3l0.2,0.2l0.2,0.2c0.2,0.2,0.3,0.4,0.4,0.6l0.3,0.4h5.4l0.4-0.4c1-1.1,1.6-2.6,1.5-4.2v-0.2l0-0.1
		l0,0v-0.1V4.8c0-0.8-0.6-1.4-1.4-1.4l-0.1,0c-0.1,0-0.2,0-0.3,0l-0.1,0V3c0-0.8-0.6-1.4-1.4-1.4l-0.1,0c-0.1,0-0.3,0-0.4,0.1l0,0
		c-0.2-0.6-0.7-1-1.3-1L8,0.7z M8.1,1.6c0.3,0,0.5,0.2,0.5,0.5v5.1c0.3,0,0.6,0,0.9,0.1V3c0-0.3,0.2-0.5,0.5-0.5
		c0.3,0,0.5,0.2,0.5,0.5v4.5c0,0,0,0.1,0,0.1c0.3,0.2,0.7,0.4,0.9,0.6V4.8c0-0.3,0.2-0.5,0.5-0.5s0.5,0.2,0.5,0.5v5.5
		c0,0,0,0.1,0,0.1c0,0.1,0,0.2,0,0.3c0.1,1.3-0.3,2.5-1.2,3.5l-0.2,0.2H6.3c-0.2-0.3-0.5-0.6-0.7-0.9l-0.3-0.3
		c-0.4-0.4-0.7-0.8-0.9-1.4c0,0,0-0.1,0-0.1L2.9,7.3C2.9,7.1,3,6.9,3.2,6.8c0,0,0.1,0,0.1,0h0.3C3.7,6.8,3.9,6.9,4,7l1.3,2.9
		c0.3,0,0.6-0.3,0.6-0.6l0-0.1V3c0-0.3,0.2-0.5,0.5-0.5c0.3,0,0.5,0.2,0.5,0.5v4.6c0.3-0.1,0.6-0.2,0.9-0.3V2.1
		C7.7,1.8,7.9,1.6,8.1,1.6z"/>
</g>
<g id="Active">
	<g id="Layer_3">
		<path fill="#5A7487" d="M15,16H1c-0.6,0-1-0.4-1-1L0,1c0-0.6,0.4-1,1-1l14,0c0.6,0,1,0.4,1,1v14C16,15.6,15.6,16,15,16z"/>
	</g>
	<path id="Icon-MoveScroll-default-16er_1_" fill="#F3F4F6" d="M8,0.7c-0.6,0.1-1,0.4-1.2,1l0,0C6.7,1.7,6.5,1.6,6.3,1.6l-0.1,0
		C5.5,1.7,5,2.3,5,3v4L4.8,6.7C4.6,6.2,4.1,5.9,3.6,5.9H3.3C2.6,5.9,2,6.5,2,7.2c0,0.1,0,0.3,0.1,0.4L3.5,12l0,0.1l0,0l0-0.1
		c0.2,0.6,0.5,1.1,0.9,1.5l0.3,0.3l0.2,0.2l0.2,0.2c0.2,0.2,0.3,0.4,0.4,0.6l0.3,0.4h5.4l0.4-0.4c1-1.1,1.6-2.6,1.5-4.2v-0.2l0-0.1
		l0,0v-0.1V4.8c0-0.8-0.6-1.4-1.4-1.4l-0.1,0c-0.1,0-0.2,0-0.3,0l-0.1,0V3c0-0.8-0.6-1.4-1.4-1.4l-0.1,0c-0.1,0-0.3,0-0.4,0.1l0,0
		c-0.2-0.6-0.7-1-1.3-1L8,0.7z M8.1,1.6c0.3,0,0.5,0.2,0.5,0.5v5.1c0.3,0,0.6,0,0.9,0.1V3c0-0.3,0.2-0.5,0.5-0.5
		c0.3,0,0.5,0.2,0.5,0.5v4.5c0,0,0,0.1,0,0.1c0.3,0.2,0.7,0.4,0.9,0.6V4.8c0-0.3,0.2-0.5,0.5-0.5s0.5,0.2,0.5,0.5v5.5
		c0,0,0,0.1,0,0.1c0,0.1,0,0.2,0,0.3c0.1,1.3-0.3,2.5-1.2,3.5l-0.2,0.2H6.3c-0.2-0.3-0.5-0.6-0.7-0.9l-0.3-0.3
		c-0.4-0.4-0.7-0.8-0.9-1.4c0,0,0-0.1,0-0.1L2.9,7.3C2.9,7.1,3,6.9,3.2,6.8c0,0,0.1,0,0.1,0h0.3C3.7,6.8,3.9,6.9,4,7l1.3,2.9
		c0.3,0,0.6-0.3,0.6-0.6l0-0.1V3c0-0.3,0.2-0.5,0.5-0.5c0.3,0,0.5,0.2,0.5,0.5v4.6c0.3-0.1,0.6-0.2,0.9-0.3V2.1
		C7.7,1.8,7.9,1.6,8.1,1.6z"/>
</g>
</svg>
