<svg xmlns="http://www.w3.org/2000/svg" width="16" height="16" style=""><rect id="backgroundrect" width="100%" height="100%" x="0" y="0" fill="none" stroke="none" class="" style=""/>
  
<g class="currentLayer" style=""><title>Layer 1</title><path fill="#000000" d="M9.158843465239771,2.42363072526893 C10.510421549696941,1.347799089342812 12.077380116741082,1.6836127325973127 13.732153019060801,3.316682875298886 C15.33888198830137,4.902339131625375 15.68573980610647,6.390560922627982 14.660079510648629,7.653434279712718 L14.556533585066509,7.774940051505883 L14.272442832594967,8.093161317172163 L13.043384607986734,6.880034091454059 L10.584631345310992,9.306540204369117 L10.626894637285595,9.380151511104264 C11.35861080297651,10.706633577510795 11.49419578116598,12.001485322172654 10.822169120962466,12.986738338731644 L10.725503415932863,13.11914588584815 L10.623360497596341,13.242290081995437 L10.229143769808559,13.659266779549691 L7.428569427919294,10.895846493281349 L4.855787281938534,13.436102674408861 L4.7509278737408644,13.510689883074209 L3.1370431836894803,14.307048926566253 C2.8119126848191263,14.467482125905573 2.4682332345968057,14.158391300986777 2.569422968356418,13.837116864790282 L2.595729811563168,13.772835060878226 L3.4026721513015543,12.180116869322761 L3.4762326977174944,12.078638294174276 L6.0333661160188115,9.518145303074425 L3.1929533349062162,6.715357835243052 L3.4782505338126555,6.433802379640236 C4.458444742368982,5.466463674114485 5.87872106280699,5.48467769717487 7.357203461594106,6.228739987899574 L7.528034168198909,6.317799770740718 L7.594103027938061,6.3536407322298345 L10.051242457411519,3.927930982645691 L8.809409324000567,2.7017739645143797 L9.158843465239771,2.42363072526893 zM6.512397194559193,10.167932449411497 L3.8589493279772,12.813438363300643 L3.6088707018931387,13.305073796342954 L4.1090279540612595,13.059256079821798 L6.781253056629465,10.432207537047326 L6.512397194559193,10.167932449411497 z" id="svg_1" class="" transform="rotate(44.37040328979492 8.896172523498535,8.07650661468506) "/></g></svg>