<svg xmlns="http://www.w3.org/2000/svg" width="16" height="16" style=""><rect id="backgroundrect" width="100%" height="100%" x="0" y="0" fill="none" stroke="none" class="" style=""/>
  
<g class="currentLayer" style=""><title>Layer 1</title><path fill="#000000" fill-rule="evenodd" d="M14.997055308118842,1.0266546429823968 C16.074489862048996,2.1040892944559566 16.074489862048996,3.8509560125507 14.997055308118842,4.928390664024249 L12.070061026823904,7.8542760524333275 L14.021621302858378,9.805560690326594 C14.560338677366854,10.344278006309029 14.560338677366854,11.217711384865087 14.021621302858378,11.756428700847522 C13.482903928349902,12.295146075356001 12.609470666845919,12.295146075356001 12.070753292337443,11.756428700847522 L10.119193016302969,9.805144062954263 L5.4729839907593245,14.452461961875098 C4.1362393000322015,15.789206672110897 2.1589764355025203,16.25597505895735 0.36554522921183263,15.658164721889392 C-0.2322651663821702,13.864733515598704 0.2345032789903314,11.887470651069023 1.5712479697174508,10.550725960341904 L6.217456995261106,5.903408041912392 L4.267281250253699,3.9529566587637817 C3.728563934271264,3.4142393427813538 3.728563934271264,2.5408059642252887 4.267281250253699,2.0020886482428537 C4.805998566236138,1.4633713322604436 5.679431944792199,1.4633713322604436 6.218149260774638,2.0020886482428537 L8.168325005782041,3.952540031391454 L11.095319287076972,1.0266546429823968 C12.172753841007125,-0.05078000849117004 13.919620754188692,-0.05078000849117004 14.997055308118842,1.0266546429823968 zM7.319697421205433,7.005648467856723 L2.6748255596135486,11.654303569746684 C2.046627039262706,12.282502109606213 1.697978833283262,13.116518863304819 1.671637725688207,13.97523321584303 L1.681681945218493,14.342028005882732 L1.7256548028058383,14.346758470634644 C2.5984893039000276,14.402348454594438 3.469214585027288,14.122044422367171 4.149832616681955,13.550226280150582 L4.3694063813545405,13.348884410996362 L9.01500172234812,8.700952768999414 L7.319697421205433,7.005648467856723 z" id="svg_1" class=""/></g></svg>