<?xml version="1.0" encoding="utf-8"?>
<!-- Generator: Adobe Illustrator 25.3.1, SVG Export Plug-In . SVG Version: 6.00 Build 0)  -->
<svg version="1.2" baseProfile="tiny" id="Ebene_1" xmlns="http://www.w3.org/2000/svg" xmlns:xlink="http://www.w3.org/1999/xlink"
	 x="0px" y="0px" viewBox="0 0 16 16" overflow="visible" xml:space="preserve">
<g id="Active">
	<path fill="#5A7487" d="M15,0H1C0.5,0,0,0.4,0,1v14c0,0.6,0.5,1,1,1h14c0.6,0,1-0.4,1-1V1C16,0.4,15.6,0,15,0z"/>
	<path id="Shape_2_" fill="#F3F4F6" d="M13.5,2.5c0.2-0.5,0.7-0.7,1.2-0.6c0.5,0.2,0.7,0.7,0.6,1.2c-0.7,2.1-1.9,3.3-3.6,3.3
		c-1.2,0-1.7-0.5-2.6-1.8L8.9,4.4C8.5,3.9,8.3,3.7,8,3.7S7.5,3.8,7.1,4.4L6.8,4.9C6,6,5.5,6.5,4.4,6.5c-1.7,0-2.9-1.2-3.6-3.3
		C0.6,2.6,0.9,2.1,1.4,2s1,0.1,1.2,0.6c0.4,1.4,1,2,1.8,2c0.3,0,0.5-0.1,0.9-0.7l0.3-0.5c0.7-1,1.3-1.5,2.4-1.5
		c1.2,0,1.7,0.5,2.6,1.8L10.8,4c0.4,0.5,0.6,0.7,0.9,0.7C12.4,4.6,13,4,13.5,2.5L13.5,2.5z"/>
	<path id="Shape_1_" fill="#F3F4F6" d="M13.5,8.8c0.2-0.5,0.7-0.7,1.2-0.6c0.5,0.2,0.7,0.7,0.6,1.2c-0.7,2.1-1.9,3.3-3.6,3.3
		c-1.2,0-1.7-0.5-2.6-1.8l-0.2-0.2C8.5,10.2,8.3,10,8,10c-0.3,0-0.5,0.1-0.9,0.7l-0.3,0.5c-0.8,1.1-1.3,1.6-2.4,1.6
		c-1.7,0-2.9-1.2-3.6-3.3C0.6,8.9,0.9,8.4,1.4,8.3c0.5-0.1,1,0.1,1.2,0.6c0.4,1.4,1,2,1.8,2c0.3,0,0.5-0.1,0.9-0.7l0.3-0.5
		c0.7-1,1.3-1.5,2.4-1.5c1.2,0,1.7,0.5,2.6,1.8l0.2,0.3c0.4,0.5,0.6,0.7,0.9,0.7C12.4,10.9,13,10.3,13.5,8.8L13.5,8.8z"/>
	<polygon display="none" fill="#F3F4F6" points="8.6,13.9 8.6,8.8 10.3,10 10.8,9.5 8,6.7 5.3,9.4 5.8,10 7.5,8.8 7.6,13.9 	"/>
	<circle fill="#5A7487" cx="10" cy="9.4" r="4.9"/>
	<path fill="#F3F4F6" d="M10,5c2.4,0,4.4,2,4.4,4.4c0,1-0.4,2-1,2.8l1.9,2c0.3,0.3,0.3,0.8,0,1.1c-0.1,0.1-0.3,0.2-0.5,0.2
		c-0.2,0-0.3-0.1-0.5-0.2l-0.1-0.1l-1.9-2c-0.7,0.4-1.4,0.6-2.3,0.6c-2.4,0-4.4-2-4.4-4.4S7.5,5,10,5z M10,6.8
		c-1.4,0-2.6,1.2-2.6,2.6S8.5,12,10,12s2.6-1.2,2.6-2.6S11.4,6.8,10,6.8z"/>
</g>
<g id="Normal" display="none">
	<path id="Shape_3_" display="inline" fill="#697882" d="M13.5,2.7c0.2-0.5,0.7-0.7,1.2-0.6c0.5,0.2,0.7,0.7,0.6,1.2
		c-0.7,2.1-1.9,3.3-3.6,3.3c-1.2,0-1.7-0.5-2.6-1.8L8.9,4.6C8.5,4,8.3,3.9,8,3.9S7.5,4,7.1,4.6L6.8,5.1C6,6.2,5.5,6.6,4.4,6.6
		c-1.7,0-2.9-1.2-3.6-3.3c-0.2-0.5,0.1-1,0.6-1.2s1,0.1,1.2,0.6c0.4,1.5,1,2.1,1.8,2.1c0.3,0,0.5-0.1,0.9-0.7l0.3-0.5
		c0.7-1,1.3-1.5,2.4-1.5c1.2,0,1.7,0.5,2.6,1.8l0.2,0.3c0.4,0.5,0.6,0.7,0.9,0.7C12.4,4.8,13,4.2,13.5,2.7L13.5,2.7z"/>
	<circle display="inline" fill="#FFFFFF" cx="10" cy="9.4" r="4.6"/>
	<path display="inline" fill="#697882" d="M10,5c2.4,0,4.4,2,4.4,4.4c0,1-0.4,2-1,2.8l1.9,2c0.3,0.3,0.3,0.8,0,1.1
		c-0.1,0.1-0.3,0.2-0.5,0.2c-0.2,0-0.3-0.1-0.5-0.2l-0.1-0.1l-1.9-2c-0.7,0.4-1.4,0.6-2.3,0.6c-2.4,0-4.4-2-4.4-4.4S7.5,5,10,5z
		 M10,6.8c-1.4,0-2.6,1.2-2.6,2.6S8.5,12,10,12s2.6-1.2,2.6-2.6S11.4,6.8,10,6.8z"/>
</g>
</svg>
