<?xml version="1.0" encoding="utf-8"?>
<!-- Generator: Adobe Illustrator 25.2.3, SVG Export Plug-In . SVG Version: 6.00 Build 0)  -->
<svg version="1.2" baseProfile="tiny" xmlns="http://www.w3.org/2000/svg" xmlns:xlink="http://www.w3.org/1999/xlink" x="0px"
	 y="0px" viewBox="0 0 16 16" overflow="visible" xml:space="preserve">
<g id="Normal">
	<path fill-rule="evenodd" fill="#697882" d="M6.9,1c3.2,0,5.9,2.6,5.9,5.9c0,1.3-0.4,2.5-1.2,3.6l-0.2,0.2l3.5,3.6
		c0.3,0.3,0.3,0.8,0,1.1c-0.1,0.1-0.3,0.2-0.5,0.2c-0.2,0-0.3-0.1-0.5-0.2l-0.1-0.1l-3.5-3.6c-1,0.7-2.1,1.1-3.4,1.1
		C3.6,12.7,1,10.1,1,6.9C1,3.6,3.6,1,6.9,1z M6.9,2.5c-2.4,0-4.3,1.9-4.3,4.3c0,2.4,1.9,4.3,4.3,4.3c2.4,0,4.3-1.9,4.3-4.3
		C11.2,4.5,9.2,2.5,6.9,2.5z M6,4h2v2l2,0v2L8,8v2H6V8L4,8V6l2,0V4z"/>
</g>
<g id="Active" display="none">
	<path display="inline" fill="#5A7487" d="M15,16H1c-0.6,0-1-0.4-1-1L0,1c0-0.6,0.4-1,1-1l14,0c0.6,0,1,0.4,1,1v14
		C16,15.6,15.6,16,15,16z"/>
	<g id="Layer_3" display="inline">
		<path fill-rule="evenodd" fill="#F3F4F6" d="M6.9,1c3.2,0,5.9,2.6,5.9,5.9c0,1.3-0.4,2.5-1.2,3.6l-0.2,0.2l3.5,3.6
			c0.3,0.3,0.3,0.8,0,1.1c-0.1,0.1-0.3,0.2-0.5,0.2c-0.2,0-0.3-0.1-0.5-0.2l-0.1-0.1l-3.5-3.6c-1,0.7-2.1,1.1-3.4,1.1
			C3.6,12.7,1,10.1,1,6.9C1,3.6,3.6,1,6.9,1z M6.9,2.5c-2.4,0-4.3,1.9-4.3,4.3c0,2.4,1.9,4.3,4.3,4.3c2.4,0,4.3-1.9,4.3-4.3
			C11.2,4.5,9.2,2.5,6.9,2.5z M6,4h2v2l2,0v2L8,8v2H6V8L4,8V6l2,0V4z"/>
	</g>
</g>
</svg>
