<?xml version="1.0" encoding="utf-8"?>
<!-- Generator: Adobe Illustrator 25.2.3, SVG Export Plug-In . SVG Version: 6.00 Build 0)  -->
<svg version="1.2" baseProfile="tiny" xmlns="http://www.w3.org/2000/svg" xmlns:xlink="http://www.w3.org/1999/xlink" x="0px"
	 y="0px" viewBox="0 0 16 16" overflow="visible" xml:space="preserve">
<g id="Normal">
	<path fill="#697882" d="M4,9c1.7,0,3,1.3,3,3s-1.3,3-3,3s-3-1.3-3-3S2.3,9,4,9z M4,11c-0.6,0-1,0.4-1,1s0.4,1,1,1s1-0.4,1-1
		S4.6,11,4,11z"/>
	<g id="Layer_2">
		<polygon fill="#697882" points="8.1,9 15.1,12 8.1,15 		"/>
	</g>
	<path id="Shape_1_" fill="#697882" d="M13.6,6c-0.5-1.5-1.1-2.1-1.9-2.1c-0.3,0-0.5,0.1-0.9,0.7l-0.2,0.3C9.8,6.1,9.3,6.6,8.1,6.6
		C7,6.6,6.4,6.2,5.6,5.1L5.3,4.6C4.9,4,4.8,3.9,4.5,3.9C3.7,3.9,3.1,4.5,2.6,6C2.4,6.5,1.9,6.7,1.4,6.6S0.7,5.9,0.9,5.4
		c0.7-2.1,1.9-3.3,3.6-3.3c1.1,0,1.7,0.5,2.4,1.6l0.3,0.5c0.4,0.5,0.6,0.7,0.9,0.7c0.3,0,0.5-0.1,0.9-0.7l0.2-0.3
		c0.8-1.3,1.4-1.8,2.6-1.8c1.7,0,2.9,1.2,3.6,3.3c0.2,0.5-0.1,1-0.6,1.2C14.3,6.7,13.7,6.5,13.6,6L13.6,6z"/>
</g>
<g id="Active" display="none">
	<path display="inline" fill="#5A7487" d="M15,16H1c-0.6,0-1-0.4-1-1L0,1c0-0.6,0.4-1,1-1l14,0c0.6,0,1,0.4,1,1v14
		C16,15.6,15.6,16,15,16z"/>
	<g id="Layer_4" display="inline">
		<path fill="#F3F4F6" d="M4,9c1.7,0,3,1.3,3,3s-1.3,3-3,3s-3-1.3-3-3S2.3,9,4,9z M4,11c-0.6,0-1,0.4-1,1s0.4,1,1,1s1-0.4,1-1
			S4.6,11,4,11z"/>
		<polygon fill="#F3F4F6" points="8.1,9 15.1,12 8.1,15 		"/>
		<path id="Shape_2_" fill="#F3F4F6" d="M13.6,6c-0.5-1.5-1.1-2.1-1.9-2.1c-0.3,0-0.5,0.1-0.9,0.7l-0.2,0.3C9.8,6.1,9.3,6.6,8.1,6.6
			C7,6.6,6.4,6.2,5.6,5.1L5.3,4.6C4.9,4,4.8,3.9,4.5,3.9C3.7,3.9,3.1,4.5,2.6,6C2.4,6.5,1.9,6.7,1.4,6.6S0.7,5.9,0.9,5.4
			c0.7-2.1,1.9-3.3,3.6-3.3c1.1,0,1.7,0.5,2.4,1.6l0.3,0.5c0.4,0.5,0.6,0.7,0.9,0.7c0.3,0,0.5-0.1,0.9-0.7l0.2-0.3
			c0.8-1.3,1.4-1.8,2.6-1.8c1.7,0,2.9,1.2,3.6,3.3c0.2,0.5-0.1,1-0.6,1.2C14.3,6.7,13.7,6.5,13.6,6L13.6,6z"/>
	</g>
</g>
</svg>
