<?xml version="1.0" encoding="utf-8"?>
<!-- Generator: Adobe Illustrator 25.2.3, SVG Export Plug-In . SVG Version: 6.00 Build 0)  -->
<svg version="1.2" baseProfile="tiny" xmlns="http://www.w3.org/2000/svg" xmlns:xlink="http://www.w3.org/1999/xlink" x="0px"
	 y="0px" viewBox="0 0 16 16" overflow="visible" xml:space="preserve">
<g id="Normal">
	<path fill="#697882" d="M10.1,5.7c2.2,0,4,1.8,4,4c0,0.9-0.3,1.8-0.9,2.5l1.7,1.8c0.3,0.3,0.3,0.7,0,1c-0.1,0.1-0.3,0.2-0.5,0.2
		c-0.2,0-0.3,0-0.4-0.1L13.9,15l-1.7-1.8c-0.6,0.4-1.3,0.6-2.1,0.6c-2.2,0-4-1.8-4-4S7.9,5.7,10.1,5.7z M10.1,7.4
		c-1.3,0-2.4,1.1-2.4,2.4s1.1,2.4,2.4,2.4s2.4-1.1,2.4-2.4S11.4,7.4,10.1,7.4z M2.4,9.3v0.9h0.9v0.9H1.5V9.3H2.4z M4.2,10.2h1.4
		L6,11.1l0,0H4.2V10.2z M2.4,6.5v1.8H1.5V6.5H2.4z M2.4,3.8v1.8H1.5V3.8H2.4z M11.5,3.8v1.8l-0.9-0.5V3.8H11.5z M3.3,1.1V2H2.4v0.9
		H1.5V1.1H3.3z M11.5,1.1v1.8h-0.9V2H9.7V1.1H11.5z M6,1.1V2H4.2V1.1H6z M8.8,1.1V2H7V1.1H8.8z"/>
</g>
<g id="Aktiv">
	<g id="Layer_2">
		<path fill="#5A7487" d="M15,16H1c-0.5,0-1-0.4-1-1L0,1c0-0.6,0.5-1,1-1l14,0c0.6,0,1,0.4,1,1v14C16,15.6,15.6,16,15,16z"/>
	</g>
	<g id="Layer_1_copy">
		<path fill="#F3F4F6" d="M10.1,5.7c2.2,0,4,1.8,4,4c0,0.9-0.3,1.8-0.9,2.5l1.7,1.8c0.3,0.3,0.3,0.7,0,1c-0.1,0.1-0.3,0.2-0.5,0.2
			c-0.2,0-0.3,0-0.4-0.1L13.9,15l-1.7-1.8c-0.6,0.4-1.3,0.6-2.1,0.6c-2.2,0-4-1.8-4-4S7.9,5.7,10.1,5.7z M10.1,7.4
			c-1.3,0-2.4,1.1-2.4,2.4s1.1,2.4,2.4,2.4s2.4-1.1,2.4-2.4S11.4,7.4,10.1,7.4z M2.4,9.3v0.9h0.9v0.9H1.5V9.3H2.4z M4.2,10.2h1.4
			L6,11.1l0,0H4.2V10.2z M2.4,6.5v1.8H1.5V6.5H2.4z M2.4,3.8v1.8H1.5V3.8H2.4z M11.5,3.8v1.8l-0.9-0.5V3.8H11.5z M3.3,1.1V2H2.4v0.9
			H1.5V1.1H3.3z M11.5,1.1v1.8h-0.9V2H9.7V1.1H11.5z M6,1.1V2H4.2V1.1H6z M8.8,1.1V2H7V1.1H8.8z"/>
	</g>
</g>
</svg>
