<?xml version="1.0" encoding="UTF-8"?>
<svg xmlns="http://www.w3.org/2000/svg" version="1.1" viewBox="0 0 24 24">
  <defs>
    <style>
      .cls-1 {
        fill: #1e1e1c;
        stroke: #1e1e1c;
        stroke-miterlimit: 10;
      }

      .cls-2 {
        fill: #1d1d1b;
        font-family: SiemensSansSC-Roman, 'Siemens Sans SC';
        font-size: 18px;
      }

      .cls-3 {
        fill: #010101;
        stroke-width: 0px;
      }
    </style>
  </defs>
  <g id="Ebene_1" data-name="Ebene 1">
    <path class="cls-3" d="M23.6,18.1c0,.8-.6,1.5-1.4,1.5-.7,0-1.3-.5-1.4-1.3,0-.2,0-.2-.2-.3-.8-.2-1.6-.3-2.4-.5-.4,0-.9-.2-1.3-.3-.1,0-.2,0-.2-.2,0-.1,0-.3.3-.3,1,.2,1.9.4,2.9.6.3,0,.5.1.8.2.2,0,.3,0,.4-.2.5-1,1.8-1,2.3,0,.1.2.2.5.3.8Z"/>
    <path class="cls-3" d="M7.4,21.7c0-1.1,1.1-1.8,2-1.3.2,0,.2,0,.4,0,.8-.7,1.6-1.5,2.4-2.2.2-.2.2,0,.3.1.1.1,0,.2,0,.3-.8.7-1.6,1.4-2.4,2.1-.1.1-.2.2,0,.4.3.7,0,1.6-.6,1.9-.7.4-1.5.1-1.8-.7,0-.2-.1-.5-.2-.7Z"/>
    <path class="cls-3" d="M7.4,13.6c.7,0,1.2.5,1.3,1.3,0,0,0,.2.2.2.6.1,1.1.2,1.7.4.4,0,.8.2,1.3.3.1,0,.1.1.1.2,0,.1,0,.3-.2.2-.4,0-.7-.1-1.1-.2-.6-.1-1.2-.3-1.8-.4,0,0-.2.1-.2.2-.3.5-.7.8-1.2.8s-.9-.3-1.2-.8c-.5-1,.2-2.2,1.2-2.2Z"/>
    <path class="cls-3" d="M13.3,10.4c0,.4-.1.8-.4,1-.1.1-.2.3,0,.4.2.6.5,1.1.7,1.7,0,.2,0,.2-.1.2-.1,0-.2.1-.3,0-.1-.3-.3-.7-.4-1,0-.2-.2-.5-.3-.7,0-.2-.2-.2-.3-.2-.4,0-.8-.1-1.1-.4-.4-.5-.5-1-.3-1.6.2-.6.7-.9,1.2-.9.8,0,1.4.6,1.4,1.5Z"/>
    <path class="cls-3" d="M16.5,14.9c0,0,0,0-.1-.1,0,0-.1-.2-.2-.3.3-.3.6-.5.9-.8.2-.1.2-.2.1-.4-.3-.7.1-1.6.8-1.8.7-.3,1.5,0,1.7.8.2.5.2,1.1-.2,1.5s-.8.6-1.3.5c-.2,0-.3-.1-.4-.2-.1,0-.2,0-.3,0-.3.3-.6.5-.9.8Z"/>
    <path class="cls-3" d="M14.9,20.9c0-.4.1-.7.4-1,.2-.2.2-.3,0-.5,0,0,0-.1,0-.2-.1-.2,0-.4.2-.4,0,0,0,0,.1,0,0,0,0,.1,0,.2,0,.3.2.4.5.4.7,0,1.2.4,1.3,1.3.1.6-.2,1.3-.8,1.6-.9.4-1.9-.3-1.8-1.4Z"/>
    <ellipse class="cls-1" cx="14.4" cy="16.4" rx="1.9" ry="2.1"/>
  </g>
  <g id="Ebene_2" data-name="Ebene 2">
    <text class="cls-2" transform="translate(.1 10.3)"><tspan x="0" y="0">+</tspan></text>
  </g>
</svg>