<?xml version="1.0" encoding="UTF-8"?>
<svg id="Ebene_1" data-name="Ebene 1" xmlns="http://www.w3.org/2000/svg" viewBox="0 0 24 24">
  <defs>
    <style>
      .cls-1 {
        fill: #1e1e1c;
        stroke: #1e1e1c;
        stroke-miterlimit: 10;
      }

      .cls-2 {
        fill: #010101;
        stroke-width: 0px;
      }
    </style>
  </defs>
  <path class="cls-2" d="M22.24,14.19c-.06.88-.72,1.59-1.62,1.61-.83.02-1.55-.54-1.64-1.44-.02-.18-.09-.25-.26-.28-.97-.17-1.94-.35-2.91-.53-.53-.1-1.06-.2-1.59-.3-.15-.03-.24-.08-.18-.25.06-.14.01-.35.3-.29,1.15.22,2.3.42,3.45.63.31.06.63.12.94.19.2.05.33.02.45-.18.63-1.06,2.14-1.06,2.76,0,.16.26.21.56.3.84Z"/>
  <path class="cls-2" d="M2.77,18.04c.05-1.18,1.33-1.95,2.39-1.41.18.09.29.05.42-.06.97-.8,1.95-1.58,2.92-2.38.22-.18.28,0,.4.11.14.14.09.22-.04.32-.96.77-1.91,1.55-2.88,2.32-.17.14-.19.26-.1.45.37.79.04,1.75-.7,2.1-.85.4-1.8.11-2.2-.71-.11-.22-.14-.49-.21-.74Z"/>
  <path class="cls-2" d="M2.8,9.34c.79,0,1.44.57,1.58,1.37.02.08.11.2.19.22.66.14,1.32.26,1.98.38.51.09,1.01.19,1.52.28.16.03.15.13.12.24-.04.13,0,.32-.23.27-.42-.08-.85-.15-1.27-.23-.73-.13-1.46-.28-2.19-.39-.08-.01-.22.11-.27.2-.31.59-.81.89-1.46.89s-1.12-.29-1.42-.86c-.56-1.07.24-2.38,1.45-2.37Z"/>
  <path class="cls-2" d="M9.9,5.88c-.03.41-.16.82-.51,1.13-.17.14-.18.28-.09.48.29.61.55,1.23.83,1.84.08.17-.03.21-.14.26-.14.07-.28.16-.38-.05-.16-.35-.32-.71-.48-1.06-.11-.26-.23-.52-.33-.79-.08-.2-.19-.26-.4-.25-.5.04-.94-.11-1.29-.48-.47-.49-.55-1.07-.34-1.68.22-.65.78-.99,1.45-1.02.95-.06,1.66.7,1.68,1.62Z"/>
  <path class="cls-2" d="M13.68,10.71c-.06-.05-.1-.08-.13-.12-.07-.09-.14-.19-.22-.3.35-.29.68-.57,1.03-.83.18-.14.21-.27.13-.48-.3-.77.13-1.7.9-2,.85-.33,1.77.03,2.09.83.24.59.19,1.17-.21,1.67s-.95.68-1.58.57c-.18-.03-.37-.12-.53-.22-.16-.09-.28-.08-.41.03-.35.28-.71.56-1.07.85Z"/>
  <path class="cls-2" d="M11.8,17.25c-.02-.42.14-.8.46-1.1.18-.17.19-.32.09-.51-.03-.06-.06-.12-.09-.18-.12-.27-.02-.45.28-.48.05,0,.11.04.14.08.04.05.06.12.08.18.11.31.25.45.65.45.79.01,1.4.45,1.58,1.36.13.69-.28,1.46-.98,1.74-1.09.44-2.27-.37-2.21-1.54Z"/>
  <circle class="cls-1" cx="11.18" cy="12.35" r="2.24"/>
</svg>